<svg xmlns="http://www.w3.org/2000/svg" viewBox="0 0 304 304">
    <path fill="#fff" d="M44.1 224a4.997 4.997 0 0 1 5.9-3.9c2.71.55 4.45 3.19 3.9 5.9s-3.19 4.45-5.9 3.9a5.01 5.01 0 0 1-3.9-3.9H0v-2h44.1zm160 48a4.997 4.997 0 0 1 5.9-3.9c2.71.55 4.45 3.19 3.9 5.9a4.997 4.997 0 0 1-5.9 3.9 5.01 5.01 0 0 1-3.9-3.9H82v-2h122.1zm57.8-46a4.997 4.997 0 0 1-5.9 3.9 4.997 4.997 0 0 1-3.9-5.9 4.997 4.997 0 0 1 5.9-3.9c1.96.4 3.5 1.94 3.9 3.9H304v2h-42.1zm0 16a4.997 4.997 0 0 1-5.9 3.9 4.997 4.997 0 0 1-3.9-5.9 4.997 4.997 0 0 1 5.9-3.9c1.96.4 3.5 1.94 3.9 3.9H304v2h-42.1zm6.2-114c.55-2.71 3.19-4.45 5.9-3.9s4.45 3.19 3.9 5.9a4.997 4.997 0 0 1-5.9 3.9 5.01 5.01 0 0 1-3.9-3.9h-86.2a4.997 4.997 0 0 1-5.9 3.9 4.997 4.997 0 0 1-3.9-5.9 4.997 4.997 0 0 1 5.9-3.9c1.96.4 3.5 1.94 3.9 3.9h86.2zm-256-48c.55-2.71 3.19-4.45 5.9-3.9s4.45 3.19 3.9 5.9a4.997 4.997 0 0 1-5.9 3.9 5.01 5.01 0 0 1-3.9-3.9H0v-2h12.1zm185.8 34a4.997 4.997 0 0 1-5.9 3.9 4.997 4.997 0 0 1-3.9-5.9 4.997 4.997 0 0 1 5.9-3.9c1.96.4 3.5 1.94 3.9 3.9h86.2c.55-2.71 3.19-4.45 5.9-3.9s4.45 3.19 3.9 5.9a4.997 4.997 0 0 1-5.9 3.9 5.01 5.01 0 0 1-3.9-3.9h-86.2zM258 12.1c2.71.55 4.45 3.19 3.9 5.9a4.997 4.997 0 0 1-5.9 3.9 4.997 4.997 0 0 1-3.9-5.9 5.01 5.01 0 0 1 3.9-3.9V0h2v12.1zm-64 208c2.71.55 4.45 3.19 3.9 5.9a4.997 4.997 0 0 1-5.9 3.9 4.997 4.997 0 0 1-3.9-5.9 5.01 5.01 0 0 1 3.9-3.9v-54.2a4.997 4.997 0 0 1-3.9-5.9 4.997 4.997 0 0 1 5.9-3.9c2.71.55 4.45 3.19 3.9 5.9a5.01 5.01 0 0 1-3.9 3.9v54.2zm48-198.2V80h62v2h-64V21.9a4.997 4.997 0 0 1-3.9-5.9 4.997 4.997 0 0 1 5.9-3.9c2.71.55 4.45 3.19 3.9 5.9a5.01 5.01 0 0 1-3.9 3.9zm16 16V64h46v2h-48V37.9a4.997 4.997 0 0 1-3.9-5.9 4.997 4.997 0 0 1 5.9-3.9c2.71.55 4.45 3.19 3.9 5.9a5.01 5.01 0 0 1-3.9 3.9zm-128 96V208h16v12.1c2.71.55 4.45 3.19 3.9 5.9a4.997 4.997 0 0 1-5.9 3.9 4.997 4.997 0 0 1-3.9-5.9 5.01 5.01 0 0 1 3.9-3.9V210h-16v-76.1a4.997 4.997 0 0 1-3.9-5.9 4.997 4.997 0 0 1 5.9-3.9c2.71.55 4.45 3.19 3.9 5.9a5.01 5.01 0 0 1-3.9 3.9zm-5.9-21.9a4.997 4.997 0 0 1 5.9-3.9c2.71.55 4.45 3.19 3.9 5.9a4.997 4.997 0 0 1-5.9 3.9 5.01 5.01 0 0 1-3.9-3.9H114v48H85.9a4.997 4.997 0 0 1-5.9 3.9c-2.71-.55-4.45-3.19-3.9-5.9s3.19-4.45 5.9-3.9c1.96.4 3.5 1.94 3.9 3.9H112v-48h12.1zm-6.2 130a4.997 4.997 0 0 1-5.9 3.9c-2.71-.55-4.45-3.19-3.9-5.9s3.19-4.45 5.9-3.9c1.96.4 3.5 1.94 3.9 3.9H176v-74.1a4.997 4.997 0 0 1-3.9-5.9 4.997 4.997 0 0 1 5.9-3.9c2.71.55 4.45 3.19 3.9 5.9a5.01 5.01 0 0 1-3.9 3.9V242h-60.1zm-16-64a4.997 4.997 0 0 1-5.9 3.9c-2.71-.55-4.45-3.19-3.9-5.9s3.19-4.45 5.9-3.9c1.96.4 3.5 1.94 3.9 3.9H114v48h10.1a4.997 4.997 0 0 1 5.9-3.9c2.71.55 4.45 3.19 3.9 5.9a4.997 4.997 0 0 1-5.9 3.9 5.01 5.01 0 0 1-3.9-3.9H112v-48h-10.1zM66 284.1c2.71.55 4.45 3.19 3.9 5.9s-3.19 4.45-5.9 3.9a4.997 4.997 0 0 1-3.9-5.9 5.01 5.01 0 0 1 3.9-3.9V274H50v30h-2v-32h18v12.1zM236.1 176a4.997 4.997 0 0 1 5.9-3.9c2.71.55 4.45 3.19 3.9 5.9a4.997 4.997 0 0 1-5.9 3.9 5.01 5.01 0 0 1-3.9-3.9H226v94h48v32h-2v-30h-48v-98h12.1zm25.8-30a4.997 4.997 0 0 1-5.9 3.9 4.997 4.997 0 0 1-3.9-5.9 4.997 4.997 0 0 1 5.9-3.9c1.96.4 3.5 1.94 3.9 3.9H274v44.1c2.71.55 4.45 3.19 3.9 5.9a4.997 4.997 0 0 1-5.9 3.9 4.997 4.997 0 0 1-3.9-5.9 5.01 5.01 0 0 1 3.9-3.9V146h-10.1zm-64 96a4.997 4.997 0 0 1-5.9 3.9 4.997 4.997 0 0 1-3.9-5.9 4.997 4.997 0 0 1 5.9-3.9c1.96.4 3.5 1.94 3.9 3.9H208v-80h16v-14h-42.1a4.997 4.997 0 0 1-5.9 3.9 4.997 4.997 0 0 1-3.9-5.9 4.997 4.997 0 0 1 5.9-3.9c1.96.4 3.5 1.94 3.9 3.9H226v18h-16v80h-12.1zm86.2-210c.55-2.71 3.19-4.45 5.9-3.9s4.45 3.19 3.9 5.9a4.997 4.997 0 0 1-5.9 3.9 5.01 5.01 0 0 1-3.9-3.9H272V0h2v32h10.1zM98 101.9V146H53.9a4.997 4.997 0 0 1-5.9 3.9c-2.71-.55-4.45-3.19-3.9-5.9s3.19-4.45 5.9-3.9c1.96.4 3.5 1.94 3.9 3.9H96v-42.1c-2.71-.55-4.45-3.19-3.9-5.9s3.19-4.45 5.9-3.9 4.45 3.19 3.9 5.9a5.01 5.01 0 0 1-3.9 3.9zM53.9 34c-.55 2.71-3.19 4.45-5.9 3.9s-4.45-3.19-3.9-5.9 3.19-4.45 5.9-3.9c1.96.4 3.5 1.94 3.9 3.9H80V0h2v34H53.9zm60.1 3.9V66H82v64H69.9a4.997 4.997 0 0 1-5.9 3.9 4.997 4.997 0 0 1-3.9-5.9 4.997 4.997 0 0 1 5.9-3.9c1.96.4 3.5 1.94 3.9 3.9H80V64h32V37.9c-2.71-.55-4.45-3.19-3.9-5.9s3.19-4.45 5.9-3.9c2.71.55 4.45 3.19 3.9 5.9a5.01 5.01 0 0 1-3.9 3.9zM101.9 82c-.55 2.71-3.19 4.45-5.9 3.9s-4.45-3.19-3.9-5.9 3.19-4.45 5.9-3.9c1.96.4 3.5 1.94 3.9 3.9H128V37.9c-2.71-.55-4.45-3.19-3.9-5.9s3.19-4.45 5.9-3.9c2.71.55 4.45 3.19 3.9 5.9a5.01 5.01 0 0 1-3.9 3.9V82h-28.1zm16-64c-.55 2.71-3.19 4.45-5.9 3.9s-4.45-3.19-3.9-5.9 3.19-4.45 5.9-3.9c1.96.4 3.5 1.94 3.9 3.9H146v44.1c2.71.55 4.45 3.19 3.9 5.9-.55 2.71-3.19 4.45-5.9 3.9s-4.45-3.19-3.9-5.9a5.01 5.01 0 0 1 3.9-3.9V18h-26.1zm102.2 270a4.997 4.997 0 0 1 5.9-3.9c2.71.55 4.45 3.19 3.9 5.9a4.997 4.997 0 0 1-5.9 3.9 5.01 5.01 0 0 1-3.9-3.9H98v14h-2v-16h124.1zM242 149.9V160h16v34h-16v62h48v48h-2v-46h-48v-66h16v-30h-16v-12.1a4.997 4.997 0 0 1-3.9-5.9 4.997 4.997 0 0 1 5.9-3.9c2.71.55 4.45 3.19 3.9 5.9a5.01 5.01 0 0 1-3.9 3.9zM53.9 18c-.55 2.71-3.19 4.45-5.9 3.9s-4.45-3.19-3.9-5.9 3.19-4.45 5.9-3.9c1.96.4 3.5 1.94 3.9 3.9H64V2H48V0h18v18H53.9zm112 32a4.997 4.997 0 0 1-5.9 3.9 4.997 4.997 0 0 1-3.9-5.9 4.997 4.997 0 0 1 5.9-3.9c1.96.4 3.5 1.94 3.9 3.9H192V0h50v2h-48v48h-28.1zm-48-48c-.55 2.71-3.19 4.45-5.9 3.9s-4.45-3.19-3.9-5.9h2.07c-.55 1.56.27 3.28 1.83 3.83 1.56.55 3.28-.27 3.83-1.83.23-.64.23-1.35 0-1.99H178v34h-18v-12.1a4.997 4.997 0 0 1-3.9-5.9 4.997 4.997 0 0 1 5.9-3.9c2.71.55 4.45 3.19 3.9 5.9a5.01 5.01 0 0 1-3.9 3.9v10.1h14V2h-58.1zm0 96c-.55 2.71-3.19 4.45-5.9 3.9s-4.45-3.19-3.9-5.9 3.19-4.45 5.9-3.9c1.96.4 3.5 1.94 3.9 3.9H137l32-32h39V21.9a4.997 4.997 0 0 1-3.9-5.9 4.997 4.997 0 0 1 5.9-3.9c2.71.55 4.45 3.19 3.9 5.9a5.01 5.01 0 0 1-3.9 3.9V66h-40.17l-32 32H117.9zm28.1 90.1c2.71.55 4.45 3.19 3.9 5.9a4.997 4.997 0 0 1-5.9 3.9 4.997 4.997 0 0 1-3.9-5.9 5.01 5.01 0 0 1 3.9-3.9v-76.51L175.59 80H224V21.9a4.997 4.997 0 0 1-3.9-5.9 4.997 4.997 0 0 1 5.9-3.9c2.71.55 4.45 3.19 3.9 5.9a5.01 5.01 0 0 1-3.9 3.9V82h-49.59L146 112.41v75.69zm16 32c2.71.55 4.45 3.19 3.9 5.9a4.997 4.997 0 0 1-5.9 3.9 4.997 4.997 0 0 1-3.9-5.9 5.01 5.01 0 0 1 3.9-3.9v-99.51L184.59 96H300.1a5.01 5.01 0 0 1 3.9-3.9v2.07a3.002 3.002 0 0 0 0 5.66v2.07a5.01 5.01 0 0 1-3.9-3.9H185.41L162 121.41v98.69zm-144-64c2.71.55 4.45 3.19 3.9 5.9a4.997 4.997 0 0 1-5.9 3.9 4.997 4.997 0 0 1-3.9-5.9 5.01 5.01 0 0 1 3.9-3.9v-3.51l48-48V48h32V0h2v50H66v55.41l-48 48v2.69zM50 53.9v43.51l-48 48V208h26.1a4.997 4.997 0 0 1 5.9-3.9c2.71.55 4.45 3.19 3.9 5.9s-3.19 4.45-5.9 3.9a5.01 5.01 0 0 1-3.9-3.9H0v-65.41l48-48V53.9c-2.71-.55-4.45-3.19-3.9-5.9s3.19-4.45 5.9-3.9 4.45 3.19 3.9 5.9a5.01 5.01 0 0 1-3.9 3.9zm-16 16v19.51l-34 34v-2.82l32-32V69.9a4.997 4.997 0 0 1-3.9-5.9c.55-2.71 3.19-4.45 5.9-3.9s4.45 3.19 3.9 5.9a5.01 5.01 0 0 1-3.9 3.9z"/>
</svg>
